Coordinates
version=1
nRows=32
nColumns=22
inDegrees=yes

Units are S.I. units (second, meters, Newtons, ...)
If the header above contains a line with 'inDegrees', this indicates whether rotational values are in degrees (yes) or radians (no).

endheader
time	pelvis_tilt	pelvis_list	pelvis_rotation	pelvis_tx	pelvis_ty	pelvis_tz	hip_flexion_r	hip_adduction_r	hip_rotation_r	knee_angle_r	ankle_angle_r	subtalar_angle_r	hip_flexion_l	hip_adduction_l	hip_rotation_l	knee_angle_l	ankle_angle_l	subtalar_angle_l	lumbar_extension	lumbar_bending	lumbar_rotation
      3.05000000	      8.10579647	     -0.95082850	      6.71921632	      0.47376914	      0.94103230	     -0.09691609	      8.40314356	      1.22785519	     -0.13113552	    -56.01044752	     -0.66037435	      6.66496881	      7.20895661	      1.34014438	     -3.99454743	    -27.19591456	     19.54681968	    -15.79402229	    -17.57833093	      2.19970935	    -11.38746344
      3.06000000	      8.00155180	     -0.63497707	      6.72125741	      0.46549395	      0.93985049	     -0.09642218	      6.77721443	      1.00592191	     -0.39768337	    -56.04106140	     -1.29179698	      6.95542325	      7.92383374	      1.70613775	     -4.04003739	    -27.31393445	     19.13180917	    -15.71324067	    -17.39910171	      1.80102872	    -11.27324866
      3.07000000	      7.85249279	     -0.34551908	      6.70410604	      0.45717991	      0.93847962	     -0.09582428	      5.16145678	      0.81925896	     -0.66574206	    -55.83582522	     -2.02089918	      7.13500091	      8.73270179	      2.04035049	     -4.09899285	    -27.50495817	     18.68220050	    -15.69755075	    -17.15046144	      1.42031793	    -11.13407269
      3.08000000	      7.74199604	     -0.05203023	      6.68685295	      0.44890854	      0.93710611	     -0.09518781	      3.44959420	      0.62098475	     -0.98859532	    -55.36975549	     -2.70446347	      7.45759658	      9.48307285	      2.36996621	     -4.16871884	    -27.66216575	     18.23609615	    -15.65547533	    -16.91873986	      1.03798203	    -10.96203379
      3.09000000	      7.66901931	      0.24199640	      6.64152861	      0.44058025	      0.93568988	     -0.09443661	      1.68300056	      0.43765496	     -1.29247297	    -54.68259400	     -3.21422461	      7.96445898	     10.21529316	      2.68135193	     -4.28654303	    -27.85429325	     17.82459011	    -15.58540381	    -16.72195751	      0.65043419	    -10.76533415
      3.10000000	      7.50354893	      0.47920897	      6.57832305	      0.43218322	      0.93407015	     -0.09359187	      0.03294777	      0.31367952	     -1.58833403	    -53.78614079	     -3.52939804	      8.23078203	     11.06937366	      2.93521366	     -4.42014706	    -28.05308707	     17.32376329	    -15.59691819	    -16.39185840	      0.31260281	    -10.51137264
      3.11000000	      7.40031022	      0.72495739	      6.47801210	      0.42363845	      0.93246031	     -0.09264459	     -1.65594997	      0.19466342	     -1.84155445	    -52.70231630	     -3.58019584	      8.63989973	     11.87108900	      3.18640390	     -4.56773132	    -28.26375679	     16.88540307	    -15.57567675	    -16.14414972	     -0.03482825	    -10.18325962
      3.12000000	      7.18717500	      0.89165838	      6.34853390	      0.41487329	      0.93059579	     -0.09155636	     -3.14949891	      0.17358826	     -2.01584167	    -51.46232926	     -3.38525249	      8.75109847	     12.85657910	      3.34993914	     -4.74926228	    -28.54168335	     16.39838286	    -15.64191309	    -15.77063021	     -0.30997054	     -9.79735084
      3.13000000	      7.04150624	      1.04660627	      6.15341630	      0.40596840	      0.92883542	     -0.09032328	     -4.67009948	      0.18523064	     -2.07615277	    -50.02035541	     -2.92342046	      8.92422465	     13.73505495	      3.49047894	     -4.91931987	    -28.73291919	     15.90228463	    -15.69026083	    -15.48265823	     -0.57489362	     -9.31691205
      3.14000000	      6.82440805	      1.12573275	      5.93595795	      0.39675033	      0.92690243	     -0.08896908	     -6.00622138	      0.29050481	     -2.03504448	    -48.44509013	     -2.34501256	      8.93052868	     14.75752396	      3.54747195	     -5.08463087	    -28.98606066	     15.32047179	    -15.80183812	    -15.13671258	     -0.76072542	     -8.80459350
      3.15000000	      6.62678423	      1.16745242	      5.61657313	      0.38729870	      0.92497499	     -0.08738927	     -7.26363555	      0.44735610	     -1.80066956	    -46.73130245	     -1.47519521	      8.77372865	     15.75475243	      3.53044917	     -5.32803481	    -29.19742015	     14.79732856	    -15.93158422	    -14.83774141	     -0.91666653	     -8.18700178
      3.16000000	      6.41248121	      1.15787206	      5.24176109	      0.37750702	      0.92300753	     -0.08565976	     -8.37593405	      0.64991779	     -1.45278166	    -44.91693372	     -0.50122476	      8.22878746	     16.78971426	      3.44680277	     -5.55580263	    -29.38956977	     14.16684986	    -16.11367605	    -14.56047291	     -1.01996652	     -7.50171255
      3.17000000	      6.19736226	      1.10329589	      4.81823981	      0.36737484	      0.92101583	     -0.08380684	     -9.35595912	      0.87913712	     -1.02290288	    -43.02753540	      0.68171828	      7.67268161	     17.83920307	      3.29104208	     -5.80958205	    -29.55753005	     13.50072126	    -16.31307352	    -14.32703223	     -1.06920191	     -6.77968258
      3.18000000	      5.99513979	      1.01907688	      4.33259921	      0.35690346	      0.91905637	     -0.08180208	    -10.20861227	      1.11114923	     -0.52075027	    -41.09832443	      2.09852178	      7.03776577	     18.85562607	      3.07478608	     -6.08613881	    -29.64559501	     12.78330872	    -16.51494911	    -14.15688601	     -1.08822415	     -6.02440112
      3.19000000	      5.81312532	      0.91501795	      3.80849452	      0.34608032	      0.91715602	     -0.07969908	    -10.93199448	      1.32508375	     -0.02223227	    -39.17453547	      3.78919057	      6.32773445	     19.82129294	      2.80731475	     -6.39809644	    -29.63688897	     11.99790819	    -16.69932292	    -14.06379348	     -1.07891236	     -5.27301300
      3.20000000	      5.65051765	      0.80123672	      3.24105099	      0.33491060	      0.91534225	     -0.07748301	    -11.50706745	      1.50707396	      0.44431505	    -37.31970724	      5.79090094	      5.65878425	     20.70983809	      2.49867493	     -6.73805940	    -29.48402912	     11.15448631	    -16.83897449	    -14.04703281	     -1.06132320	     -4.51035825
      3.21000000	      5.53172802	      0.65284019	      2.70664230	      0.32338483	      0.91365309	     -0.07528438	    -11.95699938	      1.68247040	      0.71009274	    -35.56408396	      8.05757767	      4.75779963	     21.51790044	      2.13094845	     -7.10246756	    -29.22386266	     10.18586747	    -16.89403001	    -14.13728849	     -0.98601091	     -3.81048980
      3.22000000	      5.43369236	      0.48814707	      2.17293916	      0.31154410	      0.91210531	     -0.07304218	    -12.24095195	      1.84901962	      0.84915087	    -33.97094431	     10.52486127	      3.84535832	     22.22049428	      1.72771964	     -7.47048085	    -28.77090913	      9.14495394	    -16.82930799	    -14.30138103	     -0.89092987	     -3.14102970
      3.23000000	      5.36779747	      0.28226043	      1.69222756	      0.29941310	      0.91071650	     -0.07081953	    -12.37581775	      2.05141079	      0.79490568	    -32.55179028	     13.04520286	      2.77236309	     22.82425338	      1.27114368	     -7.83032905	    -28.16143515	      8.02843455	    -16.58603515	    -14.54808068	     -0.74122338	     -2.54899268
      3.24000000	      5.31277823	      0.03420905	      1.25854704	      0.28705585	      0.90949008	     -0.06866509	    -12.34689746	      2.29764793	      0.59007746	    -31.31406587	     15.47285376	      1.54913470	     23.33084502	      0.77307964	     -8.15708204	    -27.36344967	      6.80823873	    -16.10940960	    -14.83834289	     -0.52849959	     -2.00083445
      3.25000000	      5.26098320	     -0.25629608	      0.88019940	      0.27451614	      0.90841169	     -0.06656449	    -12.14921469	      2.60417392	      0.27365435	    -30.27732936	     17.68710647	      0.21869154	     23.75287379	      0.23625643	     -8.43413566	    -26.39645739	      5.51962478	    -15.33785881	    -15.15723800	     -0.26224991	     -1.51039522
      3.26000000	      5.20195173	     -0.59029859	      0.55602291	      0.26187435	      0.90747488	     -0.06454530	    -11.79351459	      2.97556612	     -0.10477073	    -29.42803732	     19.62205714	     -1.15077156	     24.10207055	     -0.33440447	     -8.64086873	    -25.28224712	      4.18776149	    -14.21547592	    -15.47756470	      0.06196838	     -1.07084495
      3.27000000	      5.13408031	     -0.96257574	      0.27544314	      0.24919655	      0.90668002	     -0.06262816	    -11.29664360	      3.40196437	     -0.50014185	    -28.75571537	     21.25901735	     -2.47277629	     24.38587765	     -0.93147661	     -8.75850293	    -24.06105961	      2.84734336	    -12.70826267	    -15.78480220	      0.44138196	     -0.67775536
      3.28000000	      5.05693748	     -1.35769083	      0.03130321	      0.23656178	      0.90603030	     -0.06081667	    -10.68231208	      3.86322002	     -0.88034806	    -28.24154074	     22.60734563	     -3.68483098	     24.61283616	     -1.53988493	     -8.77079715	    -22.78700699	      1.54206323	    -10.80216796	    -16.06604427	      0.85415957	     -0.32589816
      3.29000000	      4.99023199	     -1.77133827	     -0.17943501	      0.22404710	      0.90556257	     -0.05911072	    -10.00402632	      4.35289927	     -1.22134584	    -27.84607206	     23.68603778	     -4.77322288	     24.78298438	     -2.16303454	     -8.68499006	    -21.54921996	      0.32590549	     -8.53951301	    -16.33317770	      1.29463295	     -0.02343349
      3.30000000	      4.93228048	     -2.17565664	     -0.36471155	      0.21171042	      0.90529131	     -0.05750878	     -9.27251323	      4.83623127	     -1.51782516	    -27.56670641	     24.52025310	     -5.69764269	     24.90441001	     -2.77426256	     -8.48651364	    -20.41027946	     -0.73960725	     -6.03902559	    -16.57557481	      1.72804237	      0.22713101
      3.31000000	      4.90050320	     -2.56286596	     -0.49893997	      0.19963812	      0.90526449	     -0.05604095	     -8.54608156	      5.30674545	     -1.80294919	    -27.34229584	     25.14666469	     -6.46730730	     24.99704532	     -3.37238699	     -8.22231669	    -19.49763681	     -1.61238349	     -3.51520068	    -16.79992129	      2.14896038	      0.38869566
      3.32000000	      4.93809004	     -2.94912560	     -0.61074679	      0.18782392	      0.90559692	     -0.05461048	     -7.88029126	      5.79978351	     -1.96221903	    -27.16214326	     25.49535340	     -7.15358766	     25.01946239	     -3.99311983	     -7.92264053	    -18.87311560	     -2.15776102	     -1.13166429	    -17.06531455	      2.56118127	      0.49419341
      3.33000000	      5.02175220	     -3.27594461	     -0.68651792	      0.17635946	      0.90629234	     -0.05326291	     -7.25574692	      6.23630665	     -2.10215937	    -27.02615253	     25.62457254	     -7.75646238	     24.99958471	     -4.57677117	     -7.66210671	    -18.58685919	     -2.35846269	      0.84518816	    -17.32488169	      2.89886196	      0.54001239
      3.34000000	      5.15332225	     -3.55346484	     -0.71236319	      0.16523118	      0.90738987	     -0.05199637	     -6.68177146	      6.63917330	     -2.20275712	    -26.91871240	     25.56853098	     -8.28372397	     24.94511018	     -5.12986058	     -7.43633865	    -18.66982459	     -2.22403091	      2.26714198	    -17.58311845	      3.17841392	      0.49445844
      3.35000000	      5.34119071	     -3.78355478	     -0.66789418	      0.15446071	      0.90890084	     -0.05083255	     -6.17806323	      7.00909069	     -2.29770066	    -26.82067053	     25.32018068	     -8.74513019	     24.86276366	     -5.65225113	     -7.26747000	    -19.16022449	     -1.65218564	      3.06964563	    -17.84806854	      3.40653077	      0.33912060
      3.36000000	      5.59676053	     -3.97161446	     -0.55816370	      0.14406289	      0.91088497	     -0.04976110	     -5.78437503	      7.35058647	     -2.37575701	    -26.67842474	     24.87366871	     -9.01083282	     24.70136792	     -6.14247823	     -7.13050765	    -19.98056992	     -0.71131710	      3.22205808	    -18.13059412	      3.58928060	      0.10888284
